<?xml version="1.0" encoding="UTF-8"?>
<svg id="Layer_2" data-name="Layer 2" xmlns="http://www.w3.org/2000/svg" viewBox="0 0 769.78 150.42">
  <defs>
    <style>
      .cls-1, .cls-2 {
        fill: none;
      }

      .cls-3 {
        fill: #bacdea;
      }

      .cls-2 {
        stroke: #bacdea;
        stroke-miterlimit: 10;
        stroke-width: 4px;
      }
    </style>
  </defs>
  <g id="Mutts_1" data-name="Mutts 1">
    <g id="MUTT">
      <path class="cls-3" d="M322.7,35.91h13.29V109.26c0,9.49,3.25,15.05,21.29,15.05h46.1c18.04,0,21.29-5.56,21.29-15.05V35.91h13.29V109.4c0,19.93-10.03,25.76-34.98,25.76h-45.29c-24.95,0-34.98-5.83-34.98-25.76V35.91h-.01Z"/>
      <path class="cls-3" d="M275.57,5.09l60.38,30.81-4.93,9.66-60.38-30.81,4.93-9.66Z"/>
      <path class="cls-3" d="M486.63,46.76h-49.63v-10.85h112.54v10.85h-49.63v87.31h-13.29V46.76h.01Z"/>
      <path class="cls-3" d="M590.22,46.76h-49.63v-10.85h112.54v10.85h-49.63v87.31h-13.29V46.76h.01Z"/>
    </g>
    <g id="face2">
      <path class="cls-3" d="M552.95,105.07c-1.77,4.42-5.35,8-8,8s-6.23-3.58-7.99-8c-1.76-4.41,1.81-7.99,8-7.99,6.18,0,9.76,3.57,7.99,7.99Z"/>
      <rect class="cls-3" x="544.33" y="102.09" width="1.51" height="20.34"/>
      <line class="cls-2" x1="551.96" y1="71.26" x2="573.56" y2="71.26"/>
      <line class="cls-2" x1="517" y1="71.26" x2="538.6" y2="71.26"/>
    </g>
    <g id="face1">
      <path class="cls-3" d="M388.21,105.07c-1.77,4.42-5.34,8-7.99,8s-6.23-3.58-8-8c-1.77-4.41,1.81-7.99,7.99-7.99,6.18,0,9.76,3.57,8,7.99Z"/>
      <line class="cls-2" x1="352.25" y1="71.26" x2="373.85" y2="71.26"/>
      <line class="cls-2" x1="387.21" y1="71.26" x2="408.81" y2="71.26"/>
    </g>
    <rect class="cls-1" width="769.78" height="150.42"/>
  </g>
</svg>