<?xml version="1.0" encoding="utf-8"?>
<!-- Generator: Adobe Illustrator 27.0.0, SVG Export Plug-In . SVG Version: 6.00 Build 0)  -->
<svg version="1.1" xmlns="http://www.w3.org/2000/svg" xmlns:xlink="http://www.w3.org/1999/xlink" x="0px" y="0px"
	 viewBox="0 0 792 216" style="enable-background:new 0 0 792 216;" xml:space="preserve">
<style type="text/css">
	.st0{display:none;}
	.st1{display:inline;}
	.st2{fill:#BACDEA;}
	.st3{fill:#F48473;}
	.st4{display:none;fill:#F48473;}
	.st5{display:inline;fill:none;}
	.st6{display:none;fill:#BACDEA;}
	.st7{display:inline;fill:#BACDEA;}
	.st8{display:inline;fill:#F48473;}
	.st9{display:none;fill:none;stroke:#BACDEA;stroke-width:4;stroke-miterlimit:10;}
	.st10{fill:none;stroke:#BACDEA;stroke-width:4;stroke-miterlimit:10;}
	.st11{fill:none;}
</style>
<g id="MASTER" class="st0">
	<g id="MUTT" class="st1">
		<path class="st2" d="M772.9,79.5h-62.3c-25.6,0-34.7,1.4-34.7,17.5c0,11.7,3.7,14.3,24.4,14.3h39.3c25.9,0,36.7,6.6,36.7,23.3v6.4
			c0,24.1-19.8,25.9-39.5,25.9h-71.6l-0.1-10.8h73.8c19.2,0,25-4.1,25-18.2c0-12.3-4.9-14.6-21.4-14.6h-25.2
			c-40.5,0-53.8-1.1-53.8-27.2c0-22.4,13.3-27.4,40.7-27.4h68.8V79.5z"/>
		<path class="st2" d="M148.4,68.7h20.8l57.3,82.3l57.4-82.3h20.8v98.2h-13.3V80.6H291l-59.8,86.2h-9.5l-59.8-86.2h-0.3v86.2h-13.3
			L148.4,68.7L148.4,68.7z"/>
		<path class="st2" d="M333.8,68.7h13.3V142c0,9.5,3.2,15.1,21.3,15.1h46.1c18,0,21.3-5.6,21.3-15.1V68.7h13.3v73.5
			c0,19.9-10,25.8-35,25.8h-45.3c-25,0-35-5.8-35-25.8L333.8,68.7L333.8,68.7z"/>
		<path class="st2" d="M286.7,37.9l60.4,30.8l-4.9,9.7l-60.4-30.8L286.7,37.9z"/>
		<path class="st2" d="M497.7,79.6h-49.6V68.7h112.5v10.8H511v87.3h-13.3L497.7,79.6L497.7,79.6z"/>
		<path class="st2" d="M601.3,79.6h-49.6V68.7h112.5v10.8h-49.6v87.3h-13.3L601.3,79.6L601.3,79.6z"/>
		<path class="st2" d="M20.2,68.7h70.1c27.4,0,40.7,5,40.7,27.4c0,26-13.3,27.2-53.8,27.2H51.9c-16.5,0-21.4,2.2-21.4,14.6
			c0,1.8,0.1,16.7,0.3,18.2c5.6,0,19.9,0,24.7,0h73.8v10.9H57.5c-10.9,0-31.1,0-39.5,0c0-7.3,0-15.1,0-25.9v-6.4
			c0-16.7,10.9-23.3,36.7-23.3h39.3c20.7,0,24.4-2.6,24.4-14.3c0-16.1-9.1-17.5-34.7-17.5H20.2V68.7z"/>
	</g>
	<g id="face2" class="st1">
		<path class="st3" d="M564.6,162.7c0,9.1-3.8,16.4-8.4,16.4c-4.7,0-8.4-7.4-8.4-16.4H564.6z"/>
		<path class="st2" d="M545.3,104.1c0,5.4-2.9,9.8-6.4,9.8s-6.4-4.4-6.4-9.8c0-5.4,2.9-9.8,6.4-9.8S545.3,98.6,545.3,104.1z"/>
		<path class="st2" d="M580.3,104.1c0,5.4-2.9,9.8-6.4,9.8c-3.5,0-6.4-4.4-6.4-9.8c0-5.4,2.9-9.8,6.4-9.8
			C577.4,94.2,580.3,98.6,580.3,104.1z"/>
		<path class="st2" d="M564.1,137.9c-1.8,4.4-5.3,8-8,8s-6.2-3.6-8-8c-1.8-4.4,1.8-8,8-8C562.2,129.9,565.8,133.4,564.1,137.9z"/>
		<rect x="555.4" y="134.9" class="st2" width="1.5" height="20.3"/>
	</g>
	<g id="face1" class="st1">
		<path class="st2" d="M380.6,104.1c0,5.4-2.9,9.8-6.4,9.8c-3.5,0-6.4-4.4-6.4-9.8c0-5.4,2.9-9.8,6.4-9.8S380.6,98.6,380.6,104.1z"
			/>
		<path class="st2" d="M415.5,104.1c0,5.4-2.9,9.8-6.4,9.8s-6.4-4.4-6.4-9.8c0-5.4,2.9-9.8,6.4-9.8
			C412.7,94.2,415.5,98.6,415.5,104.1z"/>
		<path class="st2" d="M399.3,137.9c-1.8,4.4-5.3,8-8,8s-6.2-3.6-8-8c-1.8-4.4,1.8-8,8-8C397.5,129.9,401.1,133.4,399.3,137.9z"/>
		<path class="st4" d="M399.9,162.7c0,9.1-3.8,16.4-8.4,16.4c-4.6,0-8.4-7.4-8.4-16.4H399.9z"/>
	</g>
	<rect x="11.1" y="32.8" class="st5" width="769.8" height="150.4"/>
</g>
<g id="No_Mutts" class="st0">
	<g id="MUTT_00000173150417486432043020000001709382852611608194_" class="st1">
		<path class="st2" d="M772.9,79.5h-62.3c-25.6,0-34.7,1.4-34.7,17.5c0,11.7,3.7,14.3,24.4,14.3h39.3c25.9,0,36.7,6.6,36.7,23.3v6.4
			c0,24.1-19.8,25.9-39.5,25.9h-71.6l-0.1-10.8h73.8c19.2,0,25-4.1,25-18.2c0-12.3-4.9-14.6-21.4-14.6h-25.2
			c-40.5,0-53.8-1.1-53.8-27.2c0-22.4,13.3-27.4,40.7-27.4h68.8V79.5z"/>
		<path class="st2" d="M148.4,68.7h20.8l57.3,82.3l57.4-82.3h20.8v98.2h-13.3V80.6H291l-59.8,86.2h-9.5l-59.8-86.2h-0.3v86.2h-13.3
			L148.4,68.7L148.4,68.7z"/>
		<path class="st6" d="M333.8,68.7h13.3V142c0,9.5,3.2,15.1,21.3,15.1h46.1c18,0,21.3-5.6,21.3-15.1V68.7h13.3v73.5
			c0,19.9-10,25.8-35,25.8h-45.3c-25,0-35-5.8-35-25.8L333.8,68.7L333.8,68.7z"/>
		<path class="st6" d="M286.7,37.9l60.4,30.8l-4.9,9.7l-60.4-30.8L286.7,37.9z"/>
		<path class="st6" d="M497.7,79.6h-49.6V68.7h112.5v10.8H511v87.3h-13.3L497.7,79.6L497.7,79.6z"/>
		<path class="st6" d="M601.3,79.6h-49.6V68.7h112.5v10.8h-49.6v87.3h-13.3L601.3,79.6L601.3,79.6z"/>
		<path class="st2" d="M20.2,68.7h70.1c27.4,0,40.7,5,40.7,27.4c0,26-13.3,27.2-53.8,27.2H51.9c-16.5,0-21.4,2.2-21.4,14.6
			c0,1.8,0.1,16.7,0.3,18.2c5.6,0,19.9,0,24.7,0h73.8v10.9H57.5c-10.9,0-31.1,0-39.5,0c0-7.3,0-15.1,0-25.9v-6.4
			c0-16.7,10.9-23.3,36.7-23.3h39.3c20.7,0,24.4-2.6,24.4-14.3c0-16.1-9.1-17.5-34.7-17.5H20.2V68.7z"/>
	</g>
	<g id="face2_00000180354932592610092310000012838079236510761859_">
		<path class="st7" d="M545.3,104.1c0,5.4-2.9,9.8-6.4,9.8s-6.4-4.4-6.4-9.8c0-5.4,2.9-9.8,6.4-9.8S545.3,98.6,545.3,104.1z"/>
		<path class="st7" d="M580.3,104.1c0,5.4-2.9,9.8-6.4,9.8c-3.5,0-6.4-4.4-6.4-9.8c0-5.4,2.9-9.8,6.4-9.8
			C577.4,94.2,580.3,98.6,580.3,104.1z"/>
		<path class="st7" d="M564.1,137.9c-1.8,4.4-5.3,8-8,8s-6.2-3.6-8-8c-1.8-4.4,1.8-8,8-8C562.2,129.9,565.8,133.4,564.1,137.9z"/>
		<path class="st8" d="M564.1,162.7c0,9.1-3.8,16.4-8.4,16.4c-4.7,0-8.4-7.4-8.4-16.4H564.1z"/>
		<rect x="555.4" y="134.9" class="st7" width="1.5" height="20.3"/>
	</g>
	<g id="face1_00000165954139103194553940000008587809668823361688_">
		<path class="st7" d="M380.6,104.1c0,5.4-2.9,9.8-6.4,9.8c-3.5,0-6.4-4.4-6.4-9.8c0-5.4,2.9-9.8,6.4-9.8S380.6,98.6,380.6,104.1z"
			/>
		<path class="st7" d="M415.5,104.1c0,5.4-2.9,9.8-6.4,9.8s-6.4-4.4-6.4-9.8c0-5.4,2.9-9.8,6.4-9.8
			C412.7,94.2,415.5,98.6,415.5,104.1z"/>
		<path class="st7" d="M399.3,137.9c-1.8,4.4-5.3,8-8,8s-6.2-3.6-8-8c-1.8-4.4,1.8-8,8-8C397.5,129.9,401.1,133.4,399.3,137.9z"/>
		<path class="st3" d="M399.4,162.7c0,9.1-3.8,16.4-8.4,16.4c-4.6,0-8.4-7.4-8.4-16.4H399.4z"/>
	</g>
	<rect x="11.1" y="32.8" class="st5" width="769.8" height="150.4"/>
</g>
<g id="Mutts_3" class="st0">
	<g id="MUTT_00000176756381637530492400000006487979504778090671_" class="st1">
		<path class="st6" d="M772.9,79.5h-62.3c-25.6,0-34.7,1.4-34.7,17.5c0,11.7,3.7,14.3,24.4,14.3h39.3c25.9,0,36.7,6.6,36.7,23.3v6.4
			c0,24.1-19.8,25.9-39.5,25.9h-71.6l-0.1-10.8h73.8c19.2,0,25-4.1,25-18.2c0-12.3-4.9-14.6-21.4-14.6h-25.2
			c-40.5,0-53.8-1.1-53.8-27.2c0-22.4,13.3-27.4,40.7-27.4h68.8V79.5z"/>
		<path class="st6" d="M148.4,68.7h20.8l57.3,82.3l57.4-82.3h20.8v98.2h-13.3V80.6H291l-59.8,86.2h-9.5l-59.8-86.2h-0.3v86.2h-13.3
			L148.4,68.7L148.4,68.7z"/>
		<path class="st2" d="M333.8,68.7h13.3V142c0,9.5,3.2,15.1,21.3,15.1h46.1c18,0,21.3-5.6,21.3-15.1V68.7h13.3v73.5
			c0,19.9-10,25.8-35,25.8h-45.3c-25,0-35-5.8-35-25.8L333.8,68.7L333.8,68.7z"/>
		<path class="st2" d="M286.7,37.9l60.4,30.8l-4.9,9.7l-60.4-30.8L286.7,37.9z"/>
		<path class="st2" d="M497.7,79.6h-49.6V68.7h112.5v10.8H511v87.3h-13.3L497.7,79.6L497.7,79.6z"/>
		<path class="st2" d="M601.3,79.6h-49.6V68.7h112.5v10.8h-49.6v87.3h-13.3L601.3,79.6L601.3,79.6z"/>
		<path class="st6" d="M20.2,68.7h70.1c27.4,0,40.7,5,40.7,27.4c0,26-13.3,27.2-53.8,27.2H51.9c-16.5,0-21.4,2.2-21.4,14.6
			c0,1.8,0.1,16.7,0.3,18.2c5.6,0,19.9,0,24.7,0h73.8v10.9H57.5c-10.9,0-31.1,0-39.5,0c0-7.3,0-15.1,0-25.9v-6.4
			c0-16.7,10.9-23.3,36.7-23.3h39.3c20.7,0,24.4-2.6,24.4-14.3c0-16.1-9.1-17.5-34.7-17.5H20.2V68.7z"/>
	</g>
	<g id="face2_00000044864435829216130010000001362347453578884997_" class="st1">
		<path class="st2" d="M545.3,104.1c0,5.4-2.9,9.8-6.4,9.8s-6.4-4.4-6.4-9.8c0-5.4,2.9-9.8,6.4-9.8S545.3,98.6,545.3,104.1z"/>
		<path class="st2" d="M580.3,104.1c0,5.4-2.9,9.8-6.4,9.8c-3.5,0-6.4-4.4-6.4-9.8c0-5.4,2.9-9.8,6.4-9.8
			C577.4,94.2,580.3,98.6,580.3,104.1z"/>
		<path class="st2" d="M564.1,137.9c-1.8,4.4-5.3,8-8,8s-6.2-3.6-8-8c-1.8-4.4,1.8-8,8-8C562.2,129.9,565.8,133.4,564.1,137.9z"/>
		<path class="st3" d="M564.6,162.7c0,9.1-3.8,16.4-8.4,16.4c-4.7,0-8.4-7.4-8.4-16.4H564.6z"/>
		<rect x="555.4" y="134.9" class="st2" width="1.5" height="20.3"/>
		<circle class="st6" cx="556.2" cy="163.4" r="8.7"/>
		<line class="st9" x1="563.1" y1="104.1" x2="584.7" y2="104.1"/>
		<line class="st9" x1="528.1" y1="104.1" x2="549.7" y2="104.1"/>
	</g>
	<g id="face1_00000035531295589658743330000013096779989883265968_" class="st1">
		<path class="st2" d="M380.6,104.1c0,5.4-2.9,9.8-6.4,9.8c-3.5,0-6.4-4.4-6.4-9.8c0-5.4,2.9-9.8,6.4-9.8S380.6,98.6,380.6,104.1z"
			/>
		<path class="st2" d="M415.5,104.1c0,5.4-2.9,9.8-6.4,9.8s-6.4-4.4-6.4-9.8c0-5.4,2.9-9.8,6.4-9.8
			C412.7,94.2,415.5,98.6,415.5,104.1z"/>
		<path class="st2" d="M399.3,137.9c-1.8,4.4-5.3,8-8,8s-6.2-3.6-8-8c-1.8-4.4,1.8-8,8-8C397.5,129.9,401.1,133.4,399.3,137.9z"/>
		<path class="st4" d="M399.4,162.7c0,9.1-3.8,16.4-8.4,16.4c-4.6,0-8.4-7.4-8.4-16.4H399.4z"/>
		<line class="st9" x1="398.3" y1="104.1" x2="419.9" y2="104.1"/>
		<line class="st9" x1="363.4" y1="104.1" x2="385" y2="104.1"/>
	</g>
	<rect x="11.1" y="32.8" class="st5" width="769.8" height="150.4"/>
</g>
<g id="Mutts_4" class="st0">
	<g id="MUTT_00000153672514590227382440000016804325268839885190_" class="st1">
		<path class="st6" d="M772.9,79.5h-62.3c-25.6,0-34.7,1.4-34.7,17.5c0,11.7,3.7,14.3,24.4,14.3h39.3c25.9,0,36.7,6.6,36.7,23.3v6.4
			c0,24.1-19.8,25.9-39.5,25.9h-71.6l-0.1-10.8h73.8c19.2,0,25-4.1,25-18.2c0-12.3-4.9-14.6-21.4-14.6h-25.2
			c-40.5,0-53.8-1.1-53.8-27.2c0-22.4,13.3-27.4,40.7-27.4h68.8V79.5z"/>
		<path class="st6" d="M148.4,68.7h20.8l57.3,82.3l57.4-82.3h20.8v98.2h-13.3V80.6H291l-59.8,86.2h-9.5l-59.8-86.2h-0.3v86.2h-13.3
			L148.4,68.7L148.4,68.7z"/>
		<path class="st2" d="M333.8,68.7h13.3V142c0,9.5,3.2,15.1,21.3,15.1h46.1c18,0,21.3-5.6,21.3-15.1V68.7h13.3v73.5
			c0,19.9-10,25.8-35,25.8h-45.3c-25,0-35-5.8-35-25.8L333.8,68.7L333.8,68.7z"/>
		<path class="st2" d="M286.7,37.9l60.4,30.8l-4.9,9.7l-60.4-30.8L286.7,37.9z"/>
		<path class="st2" d="M497.7,79.6h-49.6V68.7h112.5v10.8H511v87.3h-13.3L497.7,79.6L497.7,79.6z"/>
		<path class="st2" d="M601.3,79.6h-49.6V68.7h112.5v10.8h-49.6v87.3h-13.3L601.3,79.6L601.3,79.6z"/>
		<path class="st6" d="M20.2,68.7h70.1c27.4,0,40.7,5,40.7,27.4c0,26-13.3,27.2-53.8,27.2H51.9c-16.5,0-21.4,2.2-21.4,14.6
			c0,1.8,0.1,16.7,0.3,18.2c5.6,0,19.9,0,24.7,0h73.8v10.9H57.5c-10.9,0-31.1,0-39.5,0c0-7.3,0-15.1,0-25.9v-6.4
			c0-16.7,10.9-23.3,36.7-23.3h39.3c20.7,0,24.4-2.6,24.4-14.3c0-16.1-9.1-17.5-34.7-17.5H20.2V68.7z"/>
	</g>
	<g id="face2_00000060717473997818921340000013625218248647032967_" class="st1">
		<path class="st2" d="M545.3,104.1c0,5.4-2.9,9.8-6.4,9.8s-6.4-4.4-6.4-9.8c0-5.4,2.9-9.8,6.4-9.8S545.3,98.6,545.3,104.1z"/>
		<path class="st2" d="M580.3,104.1c0,5.4-2.9,9.8-6.4,9.8c-3.5,0-6.4-4.4-6.4-9.8c0-5.4,2.9-9.8,6.4-9.8
			C577.4,94.2,580.3,98.6,580.3,104.1z"/>
		<path class="st2" d="M564.1,137.9c-1.8,4.4-5.3,8-8,8s-6.2-3.6-8-8c-1.8-4.4,1.8-8,8-8C562.2,129.9,565.8,133.4,564.1,137.9z"/>
		<path class="st4" d="M564.6,162.7c0,9.1-3.8,16.4-8.4,16.4c-4.7,0-8.4-7.4-8.4-16.4H564.6z"/>
		<rect x="555.4" y="134.9" class="st2" width="1.5" height="20.3"/>
		<circle class="st2" cx="556.2" cy="163.4" r="8.7"/>
		<line class="st9" x1="563.1" y1="104.1" x2="584.7" y2="104.1"/>
		<line class="st9" x1="528.1" y1="104.1" x2="549.7" y2="104.1"/>
	</g>
	<g id="face1_00000140727513517284502370000015637304468154431900_" class="st1">
		<path class="st2" d="M380.6,104.1c0,5.4-2.9,9.8-6.4,9.8c-3.5,0-6.4-4.4-6.4-9.8c0-5.4,2.9-9.8,6.4-9.8S380.6,98.6,380.6,104.1z"
			/>
		<path class="st2" d="M415.5,104.1c0,5.4-2.9,9.8-6.4,9.8s-6.4-4.4-6.4-9.8c0-5.4,2.9-9.8,6.4-9.8
			C412.7,94.2,415.5,98.6,415.5,104.1z"/>
		<path class="st2" d="M399.3,137.9c-1.8,4.4-5.3,8-8,8s-6.2-3.6-8-8c-1.8-4.4,1.8-8,8-8C397.5,129.9,401.1,133.4,399.3,137.9z"/>
		<path class="st4" d="M399.4,162.7c0,9.1-3.8,16.4-8.4,16.4c-4.6,0-8.4-7.4-8.4-16.4H399.4z"/>
		<line class="st9" x1="363.4" y1="104.1" x2="385" y2="104.1"/>
		<line class="st9" x1="398.3" y1="104.1" x2="419.9" y2="104.1"/>
	</g>
	<circle class="st7" cx="556.2" cy="161.9" r="7.1"/>
	<rect x="11.1" y="32.8" class="st5" width="769.8" height="150.4"/>
</g>
<g id="Mutts_3_00000046307067479535214260000017342843305554524803_" class="st0">
	<g id="MUTT_00000084503723096873609550000015620102659300707245_" class="st1">
		<path class="st6" d="M772.9,79.5h-62.3c-25.6,0-34.7,1.4-34.7,17.5c0,11.7,3.7,14.3,24.4,14.3h39.3c25.9,0,36.7,6.6,36.7,23.3v6.4
			c0,24.1-19.8,25.9-39.5,25.9h-71.6l-0.1-10.8h73.8c19.2,0,25-4.1,25-18.2c0-12.3-4.9-14.6-21.4-14.6h-25.2
			c-40.5,0-53.8-1.1-53.8-27.2c0-22.4,13.3-27.4,40.7-27.4h68.8V79.5z"/>
		<path class="st6" d="M148.4,68.7h20.8l57.3,82.3l57.4-82.3h20.8v98.2h-13.3V80.6H291l-59.8,86.2h-9.5l-59.8-86.2h-0.3v86.2h-13.3
			L148.4,68.7L148.4,68.7z"/>
		<path class="st2" d="M333.8,68.7h13.3V142c0,9.5,3.2,15.1,21.3,15.1h46.1c18,0,21.3-5.6,21.3-15.1V68.7h13.3v73.5
			c0,19.9-10,25.8-35,25.8h-45.3c-25,0-35-5.8-35-25.8L333.8,68.7L333.8,68.7z"/>
		<path class="st2" d="M286.7,37.9l60.4,30.8l-4.9,9.7l-60.4-30.8L286.7,37.9z"/>
		<path class="st2" d="M497.7,79.6h-49.6V68.7h112.5v10.8H511v87.3h-13.3L497.7,79.6L497.7,79.6z"/>
		<path class="st2" d="M601.3,79.6h-49.6V68.7h112.5v10.8h-49.6v87.3h-13.3L601.3,79.6L601.3,79.6z"/>
		<path class="st6" d="M20.2,68.7h70.1c27.4,0,40.7,5,40.7,27.4c0,26-13.3,27.2-53.8,27.2H51.9c-16.5,0-21.4,2.2-21.4,14.6
			c0,1.8,0.1,16.7,0.3,18.2c5.6,0,19.9,0,24.7,0h73.8v10.9H57.5c-10.9,0-31.1,0-39.5,0c0-7.3,0-15.1,0-25.9v-6.4
			c0-16.7,10.9-23.3,36.7-23.3h39.3c20.7,0,24.4-2.6,24.4-14.3c0-16.1-9.1-17.5-34.7-17.5H20.2V68.7z"/>
	</g>
	<g id="face2_00000022544616765086345470000013995378676533193868_" class="st1">
		<path class="st2" d="M532.3,104.1c0,5.4-2.9,9.8-6.4,9.8s-6.4-4.4-6.4-9.8c0-5.4,2.9-9.8,6.4-9.8S532.3,98.6,532.3,104.1z"/>
		<path class="st2" d="M567.3,104.1c0,5.4-2.9,9.8-6.4,9.8c-3.5,0-6.4-4.4-6.4-9.8c0-5.4,2.9-9.8,6.4-9.8
			C564.4,94.2,567.3,98.6,567.3,104.1z"/>
		<path class="st2" d="M564.1,137.9c-1.8,4.4-5.3,8-8,8s-6.2-3.6-8-8c-1.8-4.4,1.8-8,8-8C562.2,129.9,565.8,133.4,564.1,137.9z"/>
		<path class="st4" d="M564.6,162.7c0,9.1-3.8,16.4-8.4,16.4c-4.7,0-8.4-7.4-8.4-16.4H564.6z"/>
		<rect x="555.4" y="134.9" class="st2" width="1.5" height="20.3"/>
		<circle class="st6" cx="556.2" cy="163.4" r="8.7"/>
		<line class="st9" x1="563.1" y1="104.1" x2="584.7" y2="104.1"/>
		<line class="st9" x1="528.1" y1="104.1" x2="549.7" y2="104.1"/>
	</g>
	<g id="face1_00000105411811017679899940000005345934766668193679_" class="st1">
		<path class="st2" d="M393.6,104.1c0,5.4-2.9,9.8-6.4,9.8c-3.5,0-6.4-4.4-6.4-9.8c0-5.4,2.9-9.8,6.4-9.8S393.6,98.6,393.6,104.1z"
			/>
		<path class="st2" d="M428.5,104.1c0,5.4-2.9,9.8-6.4,9.8s-6.4-4.4-6.4-9.8c0-5.4,2.9-9.8,6.4-9.8
			C425.7,94.2,428.5,98.6,428.5,104.1z"/>
		<path class="st2" d="M399.3,137.9c-1.8,4.4-5.3,8-8,8s-6.2-3.6-8-8c-1.8-4.4,1.8-8,8-8C397.5,129.9,401.1,133.4,399.3,137.9z"/>
		<path class="st4" d="M399.4,162.7c0,9.1-3.8,16.4-8.4,16.4c-4.6,0-8.4-7.4-8.4-16.4H399.4z"/>
		<line class="st9" x1="363.4" y1="104.1" x2="385" y2="104.1"/>
		<line class="st9" x1="398.3" y1="104.1" x2="419.9" y2="104.1"/>
	</g>
	<rect x="11.1" y="32.8" class="st5" width="769.8" height="150.4"/>
</g>
<g id="Mutts_2_00000003081488791171605450000007536795094968796823_" class="st0">
	<g id="MUTT_00000108294633685524699950000008772650475587798145_" class="st1">
		<path class="st6" d="M772.9,79.5h-62.3c-25.6,0-34.7,1.4-34.7,17.5c0,11.7,3.7,14.3,24.4,14.3h39.3c25.9,0,36.7,6.6,36.7,23.3v6.4
			c0,24.1-19.8,25.9-39.5,25.9h-71.6l-0.1-10.8h73.8c19.2,0,25-4.1,25-18.2c0-12.3-4.9-14.6-21.4-14.6h-25.2
			c-40.5,0-53.8-1.1-53.8-27.2c0-22.4,13.3-27.4,40.7-27.4h68.8V79.5z"/>
		<path class="st6" d="M148.4,68.7h20.8l57.3,82.3l57.4-82.3h20.8v98.2h-13.3V80.6H291l-59.8,86.2h-9.5l-59.8-86.2h-0.3v86.2h-13.3
			L148.4,68.7L148.4,68.7z"/>
		<path class="st2" d="M333.8,68.7h13.3V142c0,9.5,3.2,15.1,21.3,15.1h46.1c18,0,21.3-5.6,21.3-15.1V68.7h13.3v73.5
			c0,19.9-10,25.8-35,25.8h-45.3c-25,0-35-5.8-35-25.8L333.8,68.7L333.8,68.7z"/>
		<path class="st2" d="M286.7,37.9l60.4,30.8l-4.9,9.7l-60.4-30.8L286.7,37.9z"/>
		<path class="st2" d="M497.7,79.6h-49.6V68.7h112.5v10.8H511v87.3h-13.3L497.7,79.6L497.7,79.6z"/>
		<path class="st2" d="M601.3,79.6h-49.6V68.7h112.5v10.8h-49.6v87.3h-13.3L601.3,79.6L601.3,79.6z"/>
		<path class="st6" d="M20.2,68.7h70.1c27.4,0,40.7,5,40.7,27.4c0,26-13.3,27.2-53.8,27.2H51.9c-16.5,0-21.4,2.2-21.4,14.6
			c0,1.8,0.1,16.7,0.3,18.2c5.6,0,19.9,0,24.7,0h73.8v10.9H57.5c-10.9,0-31.1,0-39.5,0c0-7.3,0-15.1,0-25.9v-6.4
			c0-16.7,10.9-23.3,36.7-23.3h39.3c20.7,0,24.4-2.6,24.4-14.3c0-16.1-9.1-17.5-34.7-17.5H20.2V68.7z"/>
	</g>
	<g id="face2_00000169552823854269621890000001557233188991527096_" class="st1">
		<path class="st2" d="M545.3,104.1c0,5.4-2.9,9.8-6.4,9.8s-6.4-4.4-6.4-9.8c0-5.4,2.9-9.8,6.4-9.8S545.3,98.6,545.3,104.1z"/>
		<path class="st2" d="M580.3,104.1c0,5.4-2.9,9.8-6.4,9.8c-3.5,0-6.4-4.4-6.4-9.8c0-5.4,2.9-9.8,6.4-9.8
			C577.4,94.2,580.3,98.6,580.3,104.1z"/>
		<path class="st2" d="M564.1,137.9c-1.8,4.4-5.3,8-8,8s-6.2-3.6-8-8c-1.8-4.4,1.8-8,8-8C562.2,129.9,565.8,133.4,564.1,137.9z"/>
		<path class="st4" d="M564.6,162.7c0,9.1-3.8,16.4-8.4,16.4c-4.7,0-8.4-7.4-8.4-16.4H564.6z"/>
		<rect x="555.4" y="134.9" class="st2" width="1.5" height="20.3"/>
		<circle class="st6" cx="556.2" cy="163.4" r="8.7"/>
		<line class="st9" x1="563.1" y1="104.1" x2="584.7" y2="104.1"/>
		<line class="st9" x1="528.1" y1="104.1" x2="549.7" y2="104.1"/>
	</g>
	<g id="face1_00000041981709800225614550000007260292991914658959_" class="st1">
		<path class="st2" d="M380.6,104.1c0,5.4-2.9,9.8-6.4,9.8c-3.5,0-6.4-4.4-6.4-9.8c0-5.4,2.9-9.8,6.4-9.8S380.6,98.6,380.6,104.1z"
			/>
		<path class="st2" d="M415.5,104.1c0,5.4-2.9,9.8-6.4,9.8s-6.4-4.4-6.4-9.8c0-5.4,2.9-9.8,6.4-9.8
			C412.7,94.2,415.5,98.6,415.5,104.1z"/>
		<path class="st2" d="M399.3,137.9c-1.8,4.4-5.3,8-8,8s-6.2-3.6-8-8c-1.8-4.4,1.8-8,8-8C397.5,129.9,401.1,133.4,399.3,137.9z"/>
		<path class="st4" d="M399.4,162.7c0,9.1-3.8,16.4-8.4,16.4c-4.6,0-8.4-7.4-8.4-16.4H399.4z"/>
		<line class="st9" x1="363.4" y1="104.1" x2="385" y2="104.1"/>
		<line class="st9" x1="398.3" y1="104.1" x2="419.9" y2="104.1"/>
	</g>
	<rect x="11.1" y="32.8" class="st5" width="769.8" height="150.4"/>
</g>
<g id="Mutts_1">
	<g id="MUTT_00000003804780587307137820000013112390955978012821_">
		<path class="st6" d="M772.9,79.5h-62.3c-25.6,0-34.7,1.4-34.7,17.5c0,11.7,3.7,14.3,24.4,14.3h39.3c25.9,0,36.7,6.6,36.7,23.3v6.4
			c0,24.1-19.8,25.9-39.5,25.9h-71.6l-0.1-10.8h73.8c19.2,0,25-4.1,25-18.2c0-12.3-4.9-14.6-21.4-14.6h-25.2
			c-40.5,0-53.8-1.1-53.8-27.2c0-22.4,13.3-27.4,40.7-27.4h68.8V79.5z"/>
		<path class="st6" d="M148.4,68.7h20.8l57.3,82.3l57.4-82.3h20.8v98.2h-13.3V80.6H291l-59.8,86.2h-9.5l-59.8-86.2h-0.3v86.2h-13.3
			L148.4,68.7L148.4,68.7z"/>
		<path class="st2" d="M333.8,68.7h13.3V142c0,9.5,3.2,15.1,21.3,15.1h46.1c18,0,21.3-5.6,21.3-15.1V68.7h13.3v73.5
			c0,19.9-10,25.8-35,25.8h-45.3c-25,0-35-5.8-35-25.8L333.8,68.7L333.8,68.7z"/>
		<path class="st6" d="M497.7,79.6h-49.6V68.7h112.5v10.8H511v87.3h-13.3L497.7,79.6L497.7,79.6z"/>
		<path class="st6" d="M601.3,79.6h-49.6V68.7h112.5v10.8h-49.6v87.3h-13.3L601.3,79.6L601.3,79.6z"/>
		<path class="st6" d="M20.2,68.7h70.1c27.4,0,40.7,5,40.7,27.4c0,26-13.3,27.2-53.8,27.2H51.9c-16.5,0-21.4,2.2-21.4,14.6
			c0,1.8,0.1,16.7,0.3,18.2c5.6,0,19.9,0,24.7,0h73.8v10.9H57.5c-10.9,0-31.1,0-39.5,0c0-7.3,0-15.1,0-25.9v-6.4
			c0-16.7,10.9-23.3,36.7-23.3h39.3c20.7,0,24.4-2.6,24.4-14.3c0-16.1-9.1-17.5-34.7-17.5H20.2V68.7z"/>
	</g>
	<g id="face2_00000085930608783511180080000015602320658353895589_">
		<path class="st6" d="M545.3,104.1c0,5.4-2.9,9.8-6.4,9.8s-6.4-4.4-6.4-9.8c0-5.4,2.9-9.8,6.4-9.8S545.3,98.6,545.3,104.1z"/>
		<path class="st6" d="M580.3,104.1c0,5.4-2.9,9.8-6.4,9.8c-3.5,0-6.4-4.4-6.4-9.8c0-5.4,2.9-9.8,6.4-9.8
			C577.4,94.2,580.3,98.6,580.3,104.1z"/>
		<path class="st2" d="M564.1,137.9c-1.8,4.4-5.3,8-8,8s-6.2-3.6-8-8c-1.8-4.4,1.8-8,8-8C562.2,129.9,565.8,133.4,564.1,137.9z"/>
		<path class="st4" d="M564.6,162.7c0,9.1-3.8,16.4-8.4,16.4c-4.7,0-8.4-7.4-8.4-16.4H564.6z"/>
		<rect x="555.4" y="134.9" class="st2" width="1.5" height="20.3"/>
		<circle class="st6" cx="556.2" cy="163.4" r="8.7"/>
		<line class="st10" x1="563.1" y1="104.1" x2="584.7" y2="104.1"/>
		<line class="st10" x1="528.1" y1="104.1" x2="549.7" y2="104.1"/>
	</g>
	<g id="face1_00000052062378686603172750000002535519548775371950_">
		<path class="st6" d="M380.6,104.1c0,5.4-2.9,9.8-6.4,9.8c-3.5,0-6.4-4.4-6.4-9.8c0-5.4,2.9-9.8,6.4-9.8S380.6,98.6,380.6,104.1z"
			/>
		<path class="st6" d="M415.5,104.1c0,5.4-2.9,9.8-6.4,9.8s-6.4-4.4-6.4-9.8c0-5.4,2.9-9.8,6.4-9.8
			C412.7,94.2,415.5,98.6,415.5,104.1z"/>
		<path class="st2" d="M399.3,137.9c-1.8,4.4-5.3,8-8,8s-6.2-3.6-8-8c-1.8-4.4,1.8-8,8-8C397.5,129.9,401.1,133.4,399.3,137.9z"/>
		<path class="st4" d="M399.4,162.7c0,9.1-3.8,16.4-8.4,16.4c-4.6,0-8.4-7.4-8.4-16.4H399.4z"/>
		<line class="st10" x1="363.4" y1="104.1" x2="385" y2="104.1"/>
		<line class="st10" x1="398.3" y1="104.1" x2="419.9" y2="104.1"/>
	</g>
	<rect x="11.1" y="32.8" class="st11" width="769.8" height="150.4"/>
</g>
<g id="Sleep_Elems">
	<path class="st2" d="M342.5,75.2l-40.8,54.1l-8.7-6.5l40.8-54.1L342.5,75.2z"/>
	<path class="st2" d="M506.3,75.2l-40.8,54.1l-8.7-6.5l40.8-54.1L506.3,75.2z"/>
	<path class="st2" d="M655.5,122.8l-40.8-54.1l-8.7,6.5l40.8,54.1L655.5,122.8z"/>
	<path class="st2" d="M601.3,68.7l13.3,0l0,98.2l-13.3,0L601.3,68.7z"/>
	<path class="st2" d="M497.7,68.7l13.3,0l0,98.2l-13.3,0L497.7,68.7z"/>
	<path class="st2" d="M500.7,79.6V68.7h112.5v10.8L500.7,79.6z"/>
</g>
</svg>
