<?xml version="1.0" encoding="utf-8"?>
<!-- Generator: Adobe Illustrator 27.0.0, SVG Export Plug-In . SVG Version: 6.00 Build 0)  -->
<svg version="1.1" id="Layer_1" xmlns="http://www.w3.org/2000/svg" xmlns:xlink="http://www.w3.org/1999/xlink" x="0px" y="0px"
	 viewBox="0 0 574.655 567.559" style="enable-background:new 0 0 574.655 567.559;" xml:space="preserve">
<style type="text/css">
	.st0{fill:#FFF200;}
	
		.st1{clip-path:url(#SVGID_00000170962620016323119390000011360273760513262774_);fill:none;stroke:#D2232A;stroke-width:20;stroke-linecap:round;stroke-linejoin:round;}
	.st2{clip-path:url(#SVGID_00000170962620016323119390000011360273760513262774_);fill:#231F20;}
	.st3{clip-path:url(#SVGID_00000170962620016323119390000011360273760513262774_);fill:#D2232A;}
	.st4{clip-path:url(#SVGID_00000147219178771007768220000016212701308709809034_);fill:#D2232A;}
</style>
<polygon class="st0" points="263.5,10 19,449 508,449 "/>
<g>
	<defs>
		<rect id="SVGID_1_" width="574.655" height="567.559"/>
	</defs>
	<clipPath id="SVGID_00000056401301029474251640000004863837403910788513_">
		<use xlink:href="#SVGID_1_"  style="overflow:visible;"/>
	</clipPath>
	
		<polygon style="clip-path:url(#SVGID_00000056401301029474251640000004863837403910788513_);fill:none;stroke:#D2232A;stroke-width:20;stroke-linecap:round;stroke-linejoin:round;" points="
		263.5,10 19,449 508,449 	"/>
	<path style="clip-path:url(#SVGID_00000056401301029474251640000004863837403910788513_);fill:#231F20;" d="M69,420.154
		c1.578-0.452,3.101-0.895,4.182-2.356c0.539-0.728,1.546-1.105,2.332-1.655c3.822-2.674,7.67-5.311,11.437-8.059
		c0.838-0.612,1.495-1.555,2.051-2.458c3.184-5.172,6.257-10.413,9.487-15.555c1.266-2.016,3.002-3.537,5.324-4.504
		c1.671-0.696,3.074-2.043,4.585-3.115c0.939-0.667,1.834-1.398,2.786-2.045c6.168-4.187,11.562-3.504,16.494,2.121
		c1.138,1.298,2.113,2.737,3.225,4.059c1.478,1.757,2.207,1.761,4.025,0.418c1.485-1.099,2.979-2.242,4.621-3.059
		c3.052-1.519,5.544-0.64,7.002,2.415c0.934,1.956,1.609,4.036,2.406,6.057c0.854,2.166,2.159,3.762,4.466,4.697
		c1.241,0.503,2.485,1.731,3.082,2.948c1.5,3.058,3.286,5.854,5.402,8.529c2.016,2.548,3.613,5.431,5.336,8.203
		c0.878,1.413,1.85,2.538,3.664,2.732c0.676,0.072,1.303,0.597,1.952,0.916c0.003,0.23,0.007,0.46,0.01,0.69
		c-1.674,0.44-3.325,1.043-5.028,1.292c-13.213,1.936-26.533,2.424-39.851,2.309c-14.723-0.127-29.444-0.65-44.159-1.183
		c-3.881-0.141-7.747-0.903-11.602-1.495c-1.108-0.17-2.154-0.744-3.229-1.133V420.154z"/>
	<path style="clip-path:url(#SVGID_00000056401301029474251640000004863837403910788513_);fill:#231F20;" d="M223.575,350.383
		c-1.531-0.515-3.074-0.823-4.412-1.521c-6.276-3.277-12.877-3.219-19.666-2.381c-4.682,0.578-9.423,1.004-14.132,0.956
		c-4.684-0.049-8.575-2.367-11.708-5.825c-1.923-2.123-1.481-3.871,1.343-4.06c4.44-0.298,8.984-0.449,13.37,0.159
		c9.62,1.332,19.178,3.132,28.743,4.841c3.337,0.596,6.085,2.332,7.93,5.244c0.321,0.507,0.435,1.407,0.199,1.92
		C225.063,350.104,224.175,350.166,223.575,350.383"/>
	<path style="clip-path:url(#SVGID_00000056401301029474251640000004863837403910788513_);fill:#231F20;" d="M163.628,363.946
		v-1.971c21.206,0.886,42.161,3.345,63.046,7.354c-0.04,0.517-0.042,0.825-0.095,1.125c-0.043,0.243-0.147,0.475-0.265,0.836
		C205.645,367.328,184.828,364.928,163.628,363.946"/>
	<path style="clip-path:url(#SVGID_00000056401301029474251640000004863837403910788513_);fill:#231F20;" d="M187.91,423.827
		c-2.556-0.481-5.098-0.794-7.54-1.471c-1.983-0.549-2.136-1.46-0.911-3.071c4.657-6.126,13.056-6.224,17.12-0.2
		c1.252,1.856,1.064,2.748-1.132,3.337C193,423.079,190.454,423.37,187.91,423.827"/>
	<path style="clip-path:url(#SVGID_00000056401301029474251640000004863837403910788513_);fill:#231F20;" d="M371.093,300.069
		c0.492-0.45,0.909-0.831,1.476-1.35c11.421,13.409,22.141,27.221,31.257,42.08c-0.058,0.239-0.052,0.325-0.09,0.354
		c-0.401,0.305-0.809,0.601-1.39,1.029C393.125,327.222,382.454,313.433,371.093,300.069"/>
	<path style="clip-path:url(#SVGID_00000056401301029474251640000004863837403910788513_);fill:#231F20;" d="M349.911,293.631
		c0.459-0.552,0.815-0.979,1.273-1.529c11.776,9.605,22.414,20.224,32.298,31.874c-0.429,0.453-0.816,0.862-1.374,1.451
		C372.193,313.79,361.599,303.2,349.911,293.631"/>
	<path style="clip-path:url(#SVGID_00000056401301029474251640000004863837403910788513_);fill:#231F20;" d="M384.686,327.601
		c0.042-0.038,0.454-0.416,1.023-0.939c9.439,11.417,17.746,23.486,25.103,36.135c-0.111,0.239-0.132,0.393-0.219,0.454
		c-0.364,0.253-0.748,0.478-0.841,0.536C401.405,351.738,393.094,339.739,384.686,327.601"/>
	<path style="clip-path:url(#SVGID_00000056401301029474251640000004863837403910788513_);fill:#231F20;" d="M309.728,429.932
		c-2.62-0.478-5.442-0.921-8.221-1.556c-0.587-0.134-1.014-0.97-1.515-1.483c0.5-0.447,0.927-1.115,1.511-1.306
		c5.188-1.704,10.414-1.698,15.598,0.002c0.602,0.197,1.013,0.98,1.513,1.491c-0.499,0.449-0.932,1.155-1.507,1.3
		C314.772,428.971,312.393,429.389,309.728,429.932"/>
	<path style="clip-path:url(#SVGID_00000056401301029474251640000004863837403910788513_);fill:#231F20;" d="M336.953,436
		c-2.637-0.489-5.149-0.88-7.614-1.464c-0.629-0.149-1.112-0.907-1.662-1.386c0.508-0.502,0.93-1.265,1.537-1.465
		c5.182-1.703,10.405-1.698,15.587,0.011c0.585,0.193,1.012,0.866,1.512,1.317c-0.514,0.504-0.956,1.314-1.557,1.458
		C342.171,435.089,339.538,435.512,336.953,436"/>
	<path style="clip-path:url(#SVGID_00000056401301029474251640000004863837403910788513_);fill:#231F20;" d="M191.477,379.561
		c3.129,0.395,6.036,0.756,8.941,1.136c0.44,0.057,0.994,0.069,1.277,0.335c0.669,0.627,1.206,1.394,1.797,2.105
		c-0.85,0.204-1.705,0.602-2.547,0.577c-3.171-0.093-6.338-0.324-9.506-0.506c-1.525-0.087-3.06-0.106-4.569-0.31
		c-0.532-0.072-1-0.607-1.498-0.93c0.409-0.514,0.73-1.341,1.242-1.483C188.25,380.031,189.956,379.831,191.477,379.561"/>
	<path style="clip-path:url(#SVGID_00000056401301029474251640000004863837403910788513_);fill:#231F20;" d="M223.57,334.341
		c4.329,0.493,8.614,1.928,12.705,3.903c0.679,0.328,0.97,1.459,1.441,2.219c-0.799,0.14-1.664,0.55-2.385,0.373
		c-3.634-0.893-7.23-1.938-10.839-2.932c-1.045-0.288-2.125-0.493-3.115-0.91c-0.514-0.216-0.867-0.813-1.293-1.238
		c0.512-0.423,0.968-0.966,1.551-1.231C222.126,334.302,222.762,334.402,223.57,334.341"/>
	<path style="clip-path:url(#SVGID_00000056401301029474251640000004863837403910788513_);fill:#231F20;" d="M350.597,277.366
		c0.467-0.435,0.831-0.775,1.457-1.358c5.929,6.447,11.796,12.827,17.979,19.548c-0.594,0.482-1.057,0.857-1.567,1.271
		C362.464,290.29,356.599,283.903,350.597,277.366"/>
	<path style="clip-path:url(#SVGID_00000056401301029474251640000004863837403910788513_);fill:#231F20;" d="M203.505,420.268
		c2.593-4.787,8.597-5.442,11.438-1.373c0.55,0.788,1.067,1.72-0.229,2.156c-3.612,1.216-7.245,1.343-10.805-0.272
		C203.757,420.71,203.674,420.488,203.505,420.268"/>
	<path style="clip-path:url(#SVGID_00000056401301029474251640000004863837403910788513_);fill:#231F20;" d="M343.312,288.384
		c-2.738-1.927-5.164-3.697-7.654-5.371c-2.487-1.672-5.038-3.249-7.697-4.955c0.294-0.537,0.581-1.064,1.02-1.869
		c5.273,3.549,10.39,6.994,15.651,10.536C344.064,287.439,343.692,287.907,343.312,288.384"/>
	<path style="clip-path:url(#SVGID_00000056401301029474251640000004863837403910788513_);fill:#231F20;" d="M411.333,358.875
		c-2.018-3.959-3.931-7.713-5.922-11.618c0.459-0.291,0.964-0.611,1.696-1.074c2.03,3.981,3.994,7.831,6.015,11.794
		C412.463,358.308,411.976,358.552,411.333,358.875"/>
	<path style="clip-path:url(#SVGID_00000056401301029474251640000004863837403910788513_);fill:#231F20;" d="M159.648,361.765v1.85
		h-10.092c-0.069-0.627-0.128-1.156-0.204-1.85H159.648z"/>
	<path style="clip-path:url(#SVGID_00000056401301029474251640000004863837403910788513_);fill:#231F20;" d="M133.42,384.03
		c-1.402-0.109-2.44-1.332-2.257-2.754c0.19-1.48,1.099-2.254,2.581-2.242c1.371,0.01,2.513,1.316,2.413,2.658
		C136.055,383.068,134.803,384.137,133.42,384.03"/>
	<path style="clip-path:url(#SVGID_00000056401301029474251640000004863837403910788513_);fill:#231F20;" d="M154.493,387.963
		c1.346,0.024,2.535,1.279,2.486,2.625c-0.05,1.398-1.238,2.504-2.658,2.386c-1.478-0.123-2.315-0.954-2.346-2.466
		C151.946,389.096,153.118,387.939,154.493,387.963"/>
	<path style="clip-path:url(#SVGID_00000056401301029474251640000004863837403910788513_);fill:#231F20;" d="M83.837,406.247
		c-1.381-0.112-2.417-1.361-2.293-2.765c0.125-1.422,1.32-2.405,2.77-2.225c1.511,0.187,2.221,1.166,2.22,2.604
		C86.533,405.22,85.171,406.355,83.837,406.247"/>
	<path style="clip-path:url(#SVGID_00000056401301029474251640000004863837403910788513_);fill:#231F20;" d="M384.928,418.605
		c-3.625-2.046-7.082-4.929-11.796-4.341c-2.132,0.266-4.325,0.045-6.769,0.045c0.586,1.601,1.059,2.896,1.533,4.191
		c-2.627,0.862-2.991,0.727-3.887-1.595c-0.685-1.775-2.065-3.732-1.738-5.319c0.31-1.5,2.441-2.626,3.776-3.911
		c0.548-0.527,1.109-1.041,1.592-1.493c6.464,3.271,12.829,6.394,19.072,9.746c1.054,0.566,1.578,2.117,2.573,3.536
		C387.31,419.701,386.335,419.4,384.928,418.605 M457.869,417.529c-5.385-0.752-10.788-1.407-16.2-1.927
		c-4.126-0.396-8.278-0.529-12.523-0.786c-0.183,1.366-0.342,2.561-0.525,3.923c-0.92,0.041-1.842,0.083-2.862,0.128
		c0.224-4.451,0.434-8.713,0.67-12.974c0.012-0.217,0.223-0.455,0.397-0.626c3.884-3.8,4.784-8.6,4.629-13.757
		c-0.076-2.545-0.86-3.898-3.323-4.531c-7.304-1.877-10.935-1.732-14.437,5.468c-0.025,0.053-0.097,0.082-0.391,0.317
		c-1.627-3.303,0.904-5.211,2.399-7.616c-10.868-13.226-21.745-26.464-32.743-39.848c-2.894-3.118-7.083-8.499-10.677-9.617
		c-2.492-0.775-5.143-1.46-7.286-2.856c-6.638-4.323-13.14-8.866-19.559-13.511c-8.812-6.375-17.337-13.157-26.294-19.316
		c-6.412-4.409-13.62-7.399-21.444-8.413c-8.568-1.11-17.134-0.299-25.692,0.36c-7.72,0.594-15.427,1.514-23.194,0.597
		c-8.184-0.966-13.212-5.003-14.809-12.281c-1.639-7.467-1.763-14.983-0.29-22.506c0.529-2.699,1.089-5.393,1.525-8.107
		c0.226-1.405-0.1-2.923-1.538-3.391c-1.071-0.349-2.509-0.25-3.555,0.191c-1.12,0.471-2.161,1.434-2.912,2.428
		c-8.269,10.929-11.653,23.148-7.106,36.285c4.734,13.675,14.888,21.884,29.205,24.639c3.16,0.608,6.379,0.911,9.645,1.366
		c-1.895,2.895-3.661,5.704-5.542,8.433c-1.959,2.842-2.084,5.763-0.897,8.931c1.929,5.149,3.787,10.327,5.552,15.534
		c0.314,0.928,0.295,2.151-0.026,3.079c-1.148,3.322-2.44,6.598-3.804,9.838c-0.286,0.68-1.014,1.435-1.695,1.642
		c-3.607,1.101-7.278,1.987-10.898,3.045c-3.655,1.07-5.946,4.071-5.853,7.846c0.229,9.285,0.54,18.568,0.869,27.85
		c0.111,3.098,1.497,5.529,4.254,7.061c3.412,1.895,6.807,3.824,10.278,5.607c4.097,2.106,8.807,0.603,10.897-3.341
		c2.056-3.884,0.694-8.455-3.254-10.767c-1.655-0.97-3.374-1.831-5.041-2.782c-0.419-0.239-1.047-0.613-1.074-0.964
		c-0.209-2.725-0.295-5.459-0.419-8.191c4.567,6.276,8.631,12.642,12.871,18.888c0.967,1.423,2.379,2.725,3.875,3.569
		c2.833,1.597,5.85,2.88,8.838,4.186c4.242,1.853,8.809,0.125,10.678-3.946c1.829-3.985,0.194-8.52-3.862-10.572
		c-1.826-0.923-3.737-1.68-5.541-2.641c-0.804-0.429-1.62-1.054-2.12-1.799c-3.068-4.571-6.026-9.215-9.073-13.8
		c-0.606-0.912-0.702-1.514,0.013-2.502c5.833-8.058,12.009-15.798,19.664-22.243c0.856-0.721,1.639-1.529,2.583-2.416
		c3.91,7.063,7.364,14.072,11.536,20.624c4.262,6.694,10.457,11.708,16.798,16.683c-2.024,1.619-4.109,2.946-5.76,4.685
		c-2.644,2.786-5.404,3.3-9.03,2.036c-3.611-1.26-7.151,0.85-8.241,4.3c-1.122,3.55,0.719,7.125,4.404,8.421
		c2.533,0.891,5.124,1.618,7.643,2.542c2.878,1.055,5.434,0.714,7.982-1.046c5.057-3.49,10.204-6.851,15.352-10.206
		c0.53-0.345,1.549-0.634,1.955-0.366c3.83,2.534,7.576,5.194,11.396,7.852c-1.053,2.305-1.012,4.455,0.095,6.589
		c1.044,2.014,2.032,4.057,3.073,6.146c-3.068,0.633-3.014,0.602-4.399-1.824c-0.33-0.578-1.2-1.296-1.742-1.236
		c-5.083,0.566-10.156,1.24-15.214,2.001c-1.053,0.158-2.034,0.8-3.399,1.365c2.196,1.84,4.456,2.162,6.602,2.36
		c10.515,0.971,21.029,2.209,31.57,2.578c30.097,1.051,60.201,1.219,90.216-1.837c3.884-0.395,7.674-1.718,11.507-2.611V419
		C461.023,418.495,459.482,417.754,457.869,417.529"/>
	<path style="clip-path:url(#SVGID_00000056401301029474251640000004863837403910788513_);fill:#D2232A;" d="M9,448v88.559
		c0,16.569,13.431,30,30,30h449c16.569,0,30-13.431,30-30V448H9z"/>
</g>
<g>
	<path class="st0" d="M65.135,525.598c0,5.227-1.01,8.612-3.029,10.156c-1.724,1.366-5.465,2.049-11.226,2.049
		c-5.762,0-9.533-0.683-11.314-2.049c-1.96-1.544-2.94-4.93-2.94-10.156v-48.645c0-5.226,0.98-8.61,2.94-10.156
		c1.782-1.365,5.553-2.049,11.314-2.049c5.76,0,9.502,0.684,11.226,2.049c2.019,1.546,3.029,4.931,3.029,10.156v12.829H52.752
		V476.88c0-1.731-0.624-2.599-1.871-2.599s-1.871,0.864-1.871,2.592v48.805c0,1.729,0.624,2.592,1.871,2.592
		s1.871-0.864,1.871-2.595v-18.876h12.383V525.598z"/>
	<path class="st0" d="M98.988,537.446H86.605v-34.924h-3.742v34.924H70.48v-72.342h12.383v27.886h3.742v-27.886h12.383V537.446z"/>
	<path class="st0" d="M124.111,537.446h-19.778v-72.342h19.778v9.532h-7.395v18.354h7.395v9.532h-7.395v25.391h7.395V537.446z"/>
	<path class="st0" d="M157.965,525.598c0,5.227-1.01,8.612-3.029,10.156c-1.724,1.366-5.465,2.049-11.226,2.049
		c-5.762,0-9.533-0.683-11.314-2.049c-1.96-1.544-2.94-4.93-2.94-10.156v-48.645c0-5.226,0.98-8.61,2.94-10.156
		c1.782-1.365,5.553-2.049,11.314-2.049c5.76,0,9.502,0.684,11.226,2.049c2.019,1.546,3.029,4.931,3.029,10.156v12.829h-12.383
		V476.88c0-1.731-0.624-2.599-1.871-2.599s-1.871,0.864-1.871,2.592v48.805c0,1.729,0.624,2.592,1.871,2.592
		s1.871-0.864,1.871-2.595v-18.876h12.383V525.598z"/>
	<path class="st0" d="M193.69,537.446h-12.383l-5.167-35.102h-0.446v35.102H163.31v-72.342h12.383v28.776h0.446l4.455-28.776h12.205
		l-7.037,31.983L193.69,537.446z"/>
	<path class="st0" d="M240.301,523.993c0,5.287-0.877,8.851-2.628,10.691c-1.753,1.842-5.332,2.762-10.735,2.762h-15.146v-72.342
		h16.125c4.633,0,7.854,0.861,9.667,2.584c1.811,1.723,2.717,4.841,2.717,9.354v11.314c0,5.167-1.781,8.494-5.346,9.978
		c3.564,1.604,5.346,5.021,5.346,10.246V523.993z M227.917,490.51v-12.946c0-1.95-0.832-2.927-2.494-2.927h-1.247v18.71h1.871
		C227.294,493.347,227.917,492.401,227.917,490.51z M227.917,525.062V506.71c0-1.96-0.832-2.94-2.494-2.94h-1.247v24.144h1.871
		C227.294,527.913,227.917,526.964,227.917,525.062z"/>
	<path class="st0" d="M274.207,537.446H262.18l-0.891-15.413h-5.167l-0.891,15.413h-11.938l7.127-72.342h16.482L274.207,537.446z
		 M260.755,512.501l-1.871-33.053h-0.356l-1.96,33.053H260.755z"/>
	<path class="st0" d="M305.612,525.598c0,5.227-1.011,8.612-3.029,10.156c-1.723,1.366-5.465,2.049-11.225,2.049
		c-5.762,0-9.533-0.683-11.315-2.049c-1.96-1.544-2.939-4.93-2.939-10.156v-48.645c0-5.226,0.979-8.61,2.939-10.156
		c1.782-1.365,5.554-2.049,11.315-2.049c5.76,0,9.502,0.684,11.225,2.049c2.019,1.546,3.029,4.931,3.029,10.156v12.829h-12.384
		V476.88c0-1.731-0.623-2.599-1.87-2.599c-1.248,0-1.871,0.864-1.871,2.592v48.805c0,1.729,0.623,2.592,1.871,2.592
		c1.247,0,1.87-0.864,1.87-2.595v-18.876h12.384V525.598z"/>
	<path class="st0" d="M341.336,537.446h-12.384l-5.167-35.102h-0.445v35.102h-12.384v-72.342h12.384v28.776h0.445l4.454-28.776
		h12.206l-7.038,31.983L341.336,537.446z"/>
	<path class="st0" d="M387.751,525.775c0,5.228-0.936,8.568-2.807,10.022c-1.87,1.456-5.688,2.183-11.447,2.183
		c-5.762,0-9.504-0.682-11.226-2.049c-2.021-1.544-3.029-4.929-3.029-10.156v-18.175h12.384v18.253c0,1.73,0.623,2.595,1.871,2.595
		c1.247,0,1.87-0.863,1.87-2.589v-16.343c0-1.727-0.95-3.154-2.851-4.286l-8.553-5.001c-3.148-1.846-4.722-5.238-4.722-10.18
		v-13.186c0-5.226,1.009-8.611,3.029-10.156c1.722-1.365,5.464-2.049,11.226-2.049c5.76,0,9.532,0.684,11.314,2.049
		c1.96,1.545,2.939,4.931,2.939,10.156v13.186h-12.384v-13.261c0-1.731-0.623-2.598-1.87-2.598c-1.248,0-1.871,0.865-1.871,2.591
		v12.06c0,1.846,0.771,3.216,2.316,4.109l8.73,5.003c3.386,1.966,5.078,5.181,5.078,9.646V525.775z"/>
	<path class="st0" d="M421.605,525.775c0,5.228-0.936,8.568-2.807,10.022c-1.87,1.456-5.688,2.183-11.447,2.183
		c-5.762,0-9.504-0.682-11.226-2.049c-2.021-1.544-3.029-4.929-3.029-10.156v-48.911c0-5.226,1.009-8.611,3.029-10.156
		c1.722-1.365,5.464-2.049,11.226-2.049c5.76,0,9.532,0.684,11.314,2.049c1.96,1.545,2.939,4.931,2.939,10.156V525.775z
		 M409.221,525.856v-49.072c0-1.728-0.623-2.593-1.87-2.593c-1.248,0-1.871,0.865-1.871,2.593v49.072
		c0,1.729,0.623,2.592,1.871,2.592C408.598,528.448,409.221,527.585,409.221,525.856z"/>
	<path class="st0" d="M455.458,525.775c0,5.228-0.936,8.568-2.807,10.022c-1.87,1.456-5.688,2.183-11.447,2.183
		c-5.762,0-9.504-0.682-11.226-2.049c-2.021-1.544-3.029-4.929-3.029-10.156v-48.911c0-5.226,1.009-8.611,3.029-10.156
		c1.722-1.365,5.464-2.049,11.226-2.049c5.76,0,9.532,0.684,11.314,2.049c1.96,1.545,2.939,4.931,2.939,10.156V525.775z
		 M443.074,525.856v-49.072c0-1.728-0.623-2.593-1.87-2.593c-1.248,0-1.871,0.865-1.871,2.593v49.072
		c0,1.729,0.623,2.592,1.871,2.592C442.451,528.448,443.074,527.585,443.074,525.856z"/>
	<path class="st0" d="M489.668,537.446H478.71l-6.86-37.061h-0.534l0.268,37.061h-10.78v-72.342h11.047l6.771,36.082h0.534
		l-0.178-36.082h10.69V537.446z"/>
</g>
<g>
	<defs>
		<rect id="SVGID_00000165950576128021594370000016078703779090665654_" width="574.655" height="567.559"/>
	</defs>
	<clipPath id="SVGID_00000019650087348174905140000002058003039432946367_">
		<use xlink:href="#SVGID_00000165950576128021594370000016078703779090665654_"  style="overflow:visible;"/>
	</clipPath>
	<path style="clip-path:url(#SVGID_00000019650087348174905140000002058003039432946367_);fill:#D2232A;" d="M238.64,215.645
		c-3.253,0-5.925-1.221-8.016-3.662c-2.091-2.442-3.137-5.326-3.137-8.652c0-3.253,0.988-6.138,2.963-8.655
		c1.975-2.517,4.085-4.937,6.331-7.26c1.704-1.704,3.292-3.505,4.763-5.402c1.471-1.898,2.866-3.853,4.182-5.867
		c2.246-3.408,4.763-6.583,7.551-9.526c2.788-2.943,6.196-4.415,10.223-4.415c4.028,0,7.455,1.472,10.282,4.415
		c2.826,2.943,5.363,6.157,7.609,9.642c1.316,2.014,2.691,3.95,4.124,5.809c1.433,1.858,3.001,3.64,4.705,5.344
		c2.246,2.323,4.356,4.743,6.331,7.26c1.975,2.517,2.962,5.402,2.962,8.655c0,3.326-1.045,6.21-3.136,8.652
		c-2.091,2.441-4.763,3.662-8.016,3.662c-4.182,0-8.326-0.348-12.43-1.045c-4.105-0.697-8.248-1.046-12.431-1.046
		c-4.182,0-8.325,0.349-12.43,1.046C246.965,215.297,242.822,215.645,238.64,215.645 M299.497,168.015
		c-2.932,0-5.405-1.012-7.419-3.037c-2.013-2.024-3.02-4.503-3.02-7.435s1.012-5.405,3.037-7.418
		c2.024-2.014,4.503-3.021,7.435-3.021c2.932,0,5.405,1.013,7.418,3.037c2.014,2.025,3.021,4.503,3.021,7.435
		c0,2.932-1.012,5.405-3.037,7.419C304.907,167.008,302.429,168.015,299.497,168.015 M278.006,148.266
		c-2.933,0-5.405-1.012-7.419-3.037c-2.014-2.024-3.021-4.503-3.021-7.435s1.013-5.405,3.037-7.418
		c2.025-2.014,4.503-3.021,7.435-3.021c2.932,0,5.405,1.012,7.419,3.037c2.013,2.024,3.02,4.503,3.02,7.435
		s-1.012,5.405-3.037,7.418C283.416,147.259,280.937,148.266,278.006,148.266 M248.963,148.266c-2.932,0-5.405-1.012-7.419-3.037
		c-2.014-2.024-3.02-4.503-3.02-7.435s1.012-5.405,3.036-7.418c2.025-2.014,4.503-3.021,7.435-3.021
		c2.932,0,5.405,1.012,7.419,3.037c2.014,2.024,3.02,4.503,3.02,7.435s-1.012,5.405-3.036,7.418
		C254.373,147.259,251.895,148.266,248.963,148.266 M227.471,168.015c-2.932,0-5.405-1.012-7.419-3.037
		c-2.013-2.024-3.02-4.503-3.02-7.435s1.012-5.405,3.037-7.418c2.024-2.014,4.503-3.021,7.435-3.021
		c2.932,0,5.405,1.013,7.418,3.037c2.014,2.025,3.021,4.503,3.021,7.435c0,2.932-1.013,5.405-3.037,7.419
		C232.881,167.008,230.403,168.015,227.471,168.015"/>
</g>
<g>
</g>
<g>
</g>
<g>
</g>
<g>
</g>
<g>
</g>
<g>
</g>
</svg>
